<svg width="45" height="45" viewBox="0 0 45 45" fill="none" xmlns="http://www.w3.org/2000/svg">
<path d="M22.5001 27.7232C25.3848 27.7232 27.7233 25.3847 27.7233 22.5C27.7233 19.6153 25.3848 17.2768 22.5001 17.2768C19.6154 17.2768 17.2769 19.6153 17.2769 22.5C17.2769 25.3847 19.6154 27.7232 22.5001 27.7232Z" stroke="#EA4D3E" stroke-width="1.1" stroke-linecap="round" stroke-linejoin="round"/>
<path d="M14.1906 30.8102C13.0981 29.7196 12.2314 28.4243 11.64 26.9983C11.0486 25.5724 10.7443 24.0438 10.7443 22.5002C10.7443 20.9565 11.0486 19.4279 11.64 18.002C12.2314 16.576 13.0981 15.2807 14.1906 14.1901" stroke="#EA4D3E" stroke-width="1.1" stroke-linecap="round" stroke-linejoin="round"/>
<path d="M30.8099 14.1901C31.9024 15.2807 32.7691 16.576 33.3605 18.002C33.9519 19.4279 34.2562 20.9565 34.2562 22.5002C34.2562 24.0438 33.9519 25.5724 33.3605 26.9983C32.7691 28.4243 31.9024 29.7196 30.8099 30.8102" stroke="#EA4D3E" stroke-width="1.1" stroke-linecap="round" stroke-linejoin="round"/>
<path d="M9.57381 35.4273C7.87438 33.7308 6.52615 31.7158 5.60627 29.4977C4.68638 27.2796 4.21289 24.9018 4.21289 22.5005C4.21289 20.0992 4.68638 17.7215 5.60627 15.5033C6.52615 13.2852 7.87438 11.2702 9.57381 9.57371" stroke="#EA4D3E" stroke-width="1.1" stroke-linecap="round" stroke-linejoin="round"/>
<path d="M35.4263 9.57371C37.1257 11.2702 38.4739 13.2852 39.3938 15.5033C40.3137 17.7215 40.7872 20.0992 40.7872 22.5005C40.7872 24.9018 40.3137 27.2795 39.3938 29.4977C38.4739 31.7158 37.1257 33.7308 35.4263 35.4273" stroke="#EA4D3E" stroke-width="1.1" stroke-linecap="round" stroke-linejoin="round"/>
</svg>
