<svg width="45" height="45" viewBox="0 0 45 45" fill="none" xmlns="http://www.w3.org/2000/svg">
<path d="M29.9307 28.0383C29.2843 27.3682 28.5047 27.01 27.6784 27.01C26.8587 27.01 26.0724 27.3616 25.3993 28.0316L23.2935 30.1214C23.1202 30.0285 22.947 29.9423 22.7804 29.856C22.5405 29.7366 22.3139 29.6238 22.1207 29.5044C20.1482 28.2572 18.3556 26.6318 16.6363 24.5288C15.8033 23.4806 15.2435 22.5982 14.837 21.7026C15.3835 21.205 15.8899 20.6876 16.3831 20.19C16.5696 20.0042 16.7562 19.8118 16.9428 19.6261C18.3422 18.2329 18.3422 16.4284 16.9428 15.0352L15.1236 13.2241C14.917 13.0184 14.7038 12.8061 14.5038 12.5938C14.104 12.1825 13.6842 11.7579 13.251 11.3599C12.6046 10.723 11.8316 10.3846 11.0186 10.3846C10.2056 10.3846 9.41929 10.723 8.7529 11.3599C8.74624 11.3665 8.74624 11.3665 8.73957 11.3731L6.47385 13.6487C5.62087 14.4979 5.13441 15.5328 5.02779 16.7336C4.86785 18.6708 5.44095 20.4753 5.88077 21.6562C6.96032 24.5553 8.57298 27.2422 10.9786 30.1214C13.8974 33.5911 17.4093 36.331 21.421 38.2616C22.9537 38.9847 24.9995 39.8405 27.2852 39.9865C27.4251 39.9931 27.5717 39.9997 27.705 39.9997C29.2444 39.9997 30.5372 39.4491 31.5501 38.3545C31.5567 38.3412 31.5701 38.3346 31.5767 38.3213C31.9232 37.9033 32.3231 37.5252 32.7429 37.1205C33.0295 36.8485 33.3227 36.5632 33.6092 36.2647C34.2689 35.5814 34.6155 34.7853 34.6155 33.9692C34.6155 33.1466 34.2623 32.3571 33.5892 31.6937L29.9307 28.0383ZM32.3164 35.0241C32.3098 35.0241 32.3098 35.0307 32.3164 35.0241C32.0565 35.3027 31.79 35.5548 31.5034 35.8335C31.0703 36.2448 30.6305 36.676 30.2173 37.1603C29.5442 37.8768 28.7512 38.2151 27.7117 38.2151C27.6117 38.2151 27.5051 38.2151 27.4051 38.2085C25.426 38.0825 23.5867 37.3129 22.2073 36.6561C18.4355 34.8383 15.1236 32.2576 12.3714 28.987C10.099 26.2603 8.57964 23.7393 7.57339 21.0325C6.95365 19.3806 6.72708 18.0936 6.82704 16.8795C6.89368 16.1033 7.19355 15.4598 7.74665 14.9092L10.019 12.6469C10.3456 12.3417 10.6921 12.1759 11.032 12.1759C11.4518 12.1759 11.7916 12.428 12.0049 12.6403C12.0115 12.6469 12.0182 12.6535 12.0249 12.6602C12.4314 13.0383 12.8179 13.4297 13.2244 13.8477C13.431 14.06 13.6442 14.2723 13.8574 14.4912L15.6767 16.3024C16.3831 17.0056 16.3831 17.6557 15.6767 18.359C15.4834 18.5514 15.2968 18.7437 15.1036 18.9295C14.5438 19.5 14.0107 20.0308 13.431 20.5482C13.4176 20.5615 13.4043 20.5681 13.3976 20.5814C12.8245 21.152 12.9312 21.7092 13.0511 22.0874C13.0578 22.1073 13.0644 22.1272 13.0711 22.1471C13.5442 23.2882 14.2106 24.3629 15.2235 25.6433L15.2302 25.65C17.0694 27.9056 19.0086 29.6636 21.1477 31.0104C21.421 31.1829 21.7008 31.3222 21.9674 31.4549C22.2073 31.5743 22.4339 31.6871 22.6271 31.8065C22.6538 31.8198 22.6804 31.8397 22.7071 31.8529C22.9337 31.9657 23.1469 32.0188 23.3668 32.0188C23.9199 32.0188 24.2664 31.6738 24.3797 31.561L26.6588 29.2921C26.8853 29.0666 27.2452 28.7946 27.665 28.7946C28.0782 28.7946 28.418 29.0533 28.6246 29.2789C28.6313 29.2855 28.6313 29.2855 28.638 29.2921L32.3098 32.9476C32.9961 33.6243 32.9961 34.3209 32.3164 35.0241Z" fill="#EA4D3E"/>
<path d="M22.6767 13.9654C24.761 14.3154 26.6543 15.3018 28.1657 16.8133C29.6772 18.3248 30.6557 20.2181 31.0137 22.3024C31.1012 22.8274 31.5546 23.1933 32.0717 23.1933C32.1353 23.1933 32.191 23.1854 32.2547 23.1774C32.8433 23.082 33.2331 22.5251 33.1377 21.9364C32.7081 19.4146 31.5148 17.1156 29.6931 15.2939C27.8714 13.4721 25.5724 12.2789 23.0506 11.8493C22.4619 11.7538 21.913 12.1436 21.8096 12.7244C21.7062 13.3051 22.088 13.8699 22.6767 13.9654Z" fill="#EA4D3E"/>
<path d="M39.9564 21.6266C39.2484 17.474 37.2914 13.6953 34.2844 10.6883C31.2773 7.68122 27.4986 5.72426 23.346 5.01625C22.7653 4.91283 22.2164 5.31059 22.113 5.89132C22.0175 6.48 22.4073 7.0289 22.996 7.13232C26.7031 7.76077 30.0841 9.51886 32.7729 12.1997C35.4617 14.8886 37.2119 18.2695 37.8403 21.9766C37.9278 22.5016 38.3813 22.8676 38.8984 22.8676C38.962 22.8676 39.0177 22.8596 39.0813 22.8517C39.662 22.7642 40.0598 22.2073 39.9564 21.6266Z" fill="#EA4D3E"/>
</svg>
